<?xml version="1.0" encoding="utf-8"?>
<!-- Generator: Adobe Illustrator 21.1.0, SVG Export Plug-In . SVG Version: 6.00 Build 0)  -->
<svg version="1.1" xmlns="http://www.w3.org/2000/svg" xmlns:xlink="http://www.w3.org/1999/xlink" x="0px" y="0px"
	 viewBox="0 0 2400 300" style="enable-background:new 0 0 2400 300;" xml:space="preserve">
<style type="text/css">
	.st0{display:none;}
	.st1{display:inline;}
	.st2{fill:#DD8E6F;}
	.st3{fill:#CE7E74;}
	.st4{fill:#CE806B;}
	.st5{fill:#D68870;}
	.st6{fill:#C0CBCE;}
	.st7{fill:#CAD5DD;}
	.st8{fill:#BAC2C6;}
	.st9{fill:#D5DEE2;}
	.st10{fill:#5E686B;}
	.st11{fill:#6D7677;}
	.st12{fill:#C47762;}
	.st13{fill:#4E5354;}
	.st14{fill:#D1D9DB;}
	.st15{fill:#BAC9CC;}
	.st16{fill:#92D6E8;}
	.st17{fill:#AAB8BC;}
	.st18{fill:#63D385;}
	.st19{fill:#FFCE80;}
	.st20{fill:#FF983B;}
	.st21{fill:#C0CCCE;}
	.st22{fill:#859093;}
</style>
<g id="Слой_1" class="st0">
	<g class="st1">
		<rect x="-6" y="-8" class="st2" width="2431" height="329"/>
	</g>
</g>
<g id="Слой_3">
	<path class="st3" d="M706.533,81.052l-137.094,5.492C508.404,88.99,456.943,41.493,454.498-19.542l0,0
		c-2.445-61.035,45.051-112.496,106.086-114.941l137.094-5.492c61.035-2.445,112.496,45.051,114.941,106.086v0
		C815.064,27.146,767.568,78.607,706.533,81.052z"/>
	<path class="st3" d="M818.85,14.904l-7.605,0.305c-33.182,1.329-61.159-24.492-62.488-57.674v0
		c-1.329-33.182,24.492-61.159,57.674-62.488l7.605-0.305c33.182-1.329,61.159,24.492,62.488,57.674v0
		C877.853-14.402,852.031,13.574,818.85,14.904z"/>
	<path class="st4" d="M2032.991,506.888l-143.584,31.505c-63.925,14.026-127.117-26.424-141.143-90.349v0
		c-14.026-63.925,26.424-127.117,90.349-141.143l143.584-31.505c63.925-14.026,127.117,26.424,141.143,90.349v0
		C2137.367,429.669,2096.916,492.861,2032.991,506.888z"/>
	<path class="st4" d="M2139.064,416.046l-7.965,1.748c-34.753,7.625-69.107-14.366-76.733-49.118v0
		c-7.625-34.753,14.366-69.107,49.118-76.733l7.966-1.748c34.753-7.625,69.107,14.366,76.733,49.118v0
		C2195.808,374.066,2173.817,408.42,2139.064,416.046z"/>
</g>
<g id="Слой_2">
	<circle class="st5" cx="1053" cy="-18" r="100"/>
	<circle class="st3" cx="183.5" cy="287.5" r="57.5"/>
	<circle class="st3" cx="227.5" cy="268.5" r="28.5"/>
	<circle class="st5" cx="340.5" cy="86.5" r="21.5"/>
	<circle class="st5" cx="49.915" cy="41" r="36.915"/>
	<circle class="st5" cx="95.034" cy="65.61" r="8.203"/>
	<circle class="st4" cx="128.873" cy="31.771" r="5.127"/>
	<circle class="st4" cx="137.5" cy="41.5" r="3.5"/>
	
		<ellipse transform="matrix(0.6756 -0.7373 0.7373 0.6756 318.5368 1325.6879)" class="st5" cx="1665.626" cy="300.896" rx="64.488" ry="64.488"/>
	
		<ellipse transform="matrix(0.6756 -0.7373 0.7373 0.6756 322.0157 1368.8459)" class="st5" cx="1716.405" cy="318.522" rx="31.964" ry="31.964"/>
	
		<ellipse transform="matrix(0.6756 -0.7373 0.7373 0.6756 497.6667 1516.2645)" class="st5" cx="1971.74" cy="192.642" rx="24.113" ry="24.113"/>
	
		<ellipse transform="matrix(0.6756 -0.7373 0.7373 0.6756 568.4668 1282.196)" class="st4" cx="1741.172" cy="-4.842" rx="40.375" ry="40.375"/>
	
		<ellipse transform="matrix(0.6756 -0.7373 0.7373 0.6756 535.1597 1312.869)" class="st5" cx="1759.372" cy="48.341" rx="8.972" ry="8.972"/>
	
		<ellipse transform="matrix(0.6756 -0.7373 0.7373 0.6756 553.8092 1350.6818)" class="st5" cx="1811.662" cy="46.056" rx="5.608" ry="5.608"/>
	
		<ellipse transform="matrix(0.6756 -0.7373 0.7373 0.6756 542.3431 1357.7615)" class="st5" cx="1813.974" cy="62.625" rx="3.925" ry="3.925"/>
	
		<ellipse transform="matrix(0.549 -0.8358 0.8358 0.549 241.8 1070.6132)" class="st5" cx="1112.917" cy="311.258" rx="71.048" ry="71.048"/>
	
		<ellipse transform="matrix(0.549 -0.8358 0.8358 0.549 296.3628 1106.541)" class="st5" cx="1173.489" cy="278.664" rx="31.964" ry="31.964"/>
	
		<ellipse transform="matrix(0.6756 -0.7373 0.7373 0.6756 586.0699 1613.0293)" class="st5" cx="2125.894" cy="140.573" rx="8.972" ry="8.972"/>
	
		<ellipse transform="matrix(0.6756 -0.7373 0.7373 0.6756 533.1863 1615.429)" class="st5" cx="2102.179" cy="201.863" rx="5.608" ry="5.608"/>
	
		<ellipse transform="matrix(0.6756 -0.7373 0.7373 0.6756 526.1065 1603.9628)" class="st5" cx="2085.61" cy="204.175" rx="3.925" ry="3.925"/>
	<circle class="st4" cx="700" cy="202" r="35"/>
	<circle class="st4" cx="1485" cy="87" r="51"/>
	<circle class="st5" cx="1552.5" cy="139.5" r="16.5"/>
	<circle class="st3" cx="2362" cy="40" r="17"/>
	<g>
		<path class="st6" d="M198.965,105.882l-12.489,3.608c-4.245,1.226-8.68-1.221-9.906-5.465v0c-1.226-4.245,1.221-8.68,5.465-9.906
			l12.489-3.608c4.245-1.226,8.68,1.221,9.906,5.465v0C205.657,100.22,203.21,104.655,198.965,105.882z"/>
	</g>
	<g>
		<path class="st7" d="M189.654,127.066l-16.765-4.389c-5.698-1.492-9.107-7.32-7.616-13.017v0c1.492-5.698,7.32-9.107,13.017-7.616
			l16.765,4.389c5.698,1.492,9.107,7.32,7.616,13.017v0C201.18,125.148,195.352,128.558,189.654,127.066z"/>
	</g>
	<g>
		<path class="st6" d="M1424.29,22.898l7.501,5.994c2.549,2.037,2.965,5.755,0.927,8.305v0c-2.037,2.549-5.755,2.965-8.305,0.927
			l-7.501-5.994c-2.549-2.037-2.965-5.755-0.927-8.305v0C1418.023,21.277,1421.741,20.861,1424.29,22.898z"/>
	</g>
	<g>
		<path class="st7" d="M1448.037,19.481l4.501,11.982c1.53,4.072-0.531,8.614-4.604,10.143v0c-4.072,1.53-8.614-0.531-10.143-4.604
			l-4.501-11.982c-1.53-4.072,0.531-8.614,4.604-10.143l0,0C1441.965,13.348,1446.507,15.409,1448.037,19.481z"/>
	</g>
	<g>
		<path class="st7" d="M1033.463,273.332l-18.643,10.763c-6.336,3.658-14.438,1.487-18.096-4.849l0,0
			c-3.658-6.336-1.487-14.438,4.849-18.096l18.643-10.763c6.336-3.658,14.438-1.487,18.096,4.849v0
			C1041.97,261.572,1039.799,269.674,1033.463,273.332z"/>
	</g>
	<g>
		<path class="st8" d="M978.631,233.3l-1.159,2.972c-1.21,3.102-4.706,4.636-7.809,3.426l-0.018-0.007
			c-3.102-1.21-4.636-4.706-3.426-7.809l1.166-2.99c1.21-3.102,4.706-4.636,7.809-3.426l0,0
			C978.306,226.68,979.845,230.188,978.631,233.3z"/>
	</g>
	<g>
		<path class="st7" d="M2327.318,183.248l-10.505,26.928c-3.548,9.096-13.798,13.593-22.894,10.044v0
			c-9.096-3.548-13.593-13.798-10.044-22.894l10.505-26.928c3.548-9.096,13.798-13.593,22.894-10.044v0
			C2326.369,163.902,2330.866,174.152,2327.318,183.248z"/>
	</g>
	<g>
		<path class="st9" d="M2294.663,165.298l2.522,18.671c0.778,5.758-3.259,11.056-9.017,11.834l0,0
			c-5.758,0.778-11.056-3.259-11.834-9.017l-2.522-18.671c-0.778-5.758,3.259-11.056,9.017-11.834l0,0
			C2288.587,155.503,2293.885,159.54,2294.663,165.298z"/>
	</g>
	<g>
		<path class="st10" d="M1879.411,174.302l-2.266,1.131c-2.539,1.267-5.624,0.236-6.891-2.303l0,0
			c-1.267-2.539-0.236-5.624,2.303-6.891l2.266-1.131c2.539-1.267,5.624-0.236,6.891,2.303v0
			C1882.98,169.949,1881.949,173.035,1879.411,174.302z"/>
	</g>
	<g>
		<path class="st10" d="M608.718,276.587l4.33,11.528c1.998,5.318-0.694,11.249-6.012,13.247l0,0
			c-5.318,1.998-11.249-0.694-13.247-6.012l-4.33-11.528c-1.998-5.318,0.694-11.249,6.012-13.247l0,0
			C600.789,268.577,606.72,271.268,608.718,276.587z"/>
	</g>
	<g>
		<path class="st11" d="M590.215,287.516l6.947,4.656c3.205,2.148,4.062,6.488,1.914,9.692l0,0
			c-2.148,3.205-6.487,4.062-9.692,1.914l-6.947-4.656c-3.205-2.148-4.062-6.487-1.914-9.692v0
			C582.67,286.225,587.01,285.368,590.215,287.516z"/>
	</g>
</g>
<g id="Слой_4">
	<path class="st12" d="M2028.595,151.337l-32.048,7.87c-3.486,0.856-7.006-1.276-7.863-4.762l0,0
		c-0.856-3.486,1.276-7.006,4.762-7.863l32.048-7.87c3.486-0.856,7.007,1.276,7.863,4.762v0
		C2034.213,146.96,2032.081,150.481,2028.595,151.337z"/>
	<path class="st12" d="M2034.796,176.587l-32.048,7.87c-3.486,0.856-7.006-1.276-7.863-4.762v0
		c-0.856-3.486,1.276-7.006,4.762-7.863l32.048-7.87c3.486-0.856,7.006,1.276,7.863,4.762v0
		C2040.414,172.21,2038.282,175.73,2034.796,176.587z"/>
	<path class="st12" d="M2040.996,201.836l-32.048,7.87c-3.486,0.856-7.006-1.276-7.863-4.762l0,0
		c-0.856-3.486,1.276-7.006,4.762-7.863l32.048-7.87c3.486-0.856,7.006,1.276,7.863,4.762v0
		C2046.615,197.46,2044.483,200.98,2040.996,201.836z"/>
	<path class="st12" d="M2016.193,100.837l-32.048,7.87c-3.486,0.856-7.006-1.276-7.863-4.762v0
		c-0.856-3.486,1.276-7.006,4.762-7.863l32.048-7.87c3.486-0.856,7.006,1.276,7.863,4.762v0
		C2021.812,96.461,2019.68,99.981,2016.193,100.837z"/>
	<path class="st12" d="M2022.394,126.087l-32.048,7.87c-3.486,0.856-7.006-1.276-7.863-4.762v0
		c-0.856-3.486,1.276-7.006,4.762-7.863l32.048-7.87c3.486-0.856,7.006,1.276,7.863,4.762v0
		C2028.012,121.711,2025.88,125.231,2022.394,126.087z"/>
	<path class="st12" d="M1997.591,25.088l-32.048,7.87c-3.486,0.856-7.006-1.276-7.863-4.762v0c-0.856-3.486,1.276-7.006,4.762-7.863
		l32.048-7.87c3.486-0.856,7.006,1.276,7.863,4.762v0C2003.21,20.712,2001.078,24.232,1997.591,25.088z"/>
	<path class="st12" d="M2003.792,50.338l-32.048,7.87c-3.486,0.856-7.006-1.276-7.863-4.762v0c-0.856-3.486,1.276-7.006,4.762-7.863
		l32.048-7.87c3.486-0.856,7.006,1.276,7.863,4.762v0C2009.41,45.961,2007.278,49.482,2003.792,50.338z"/>
	<path class="st12" d="M2009.993,75.588l-32.048,7.87c-3.486,0.856-7.006-1.276-7.863-4.762v0c-0.856-3.486,1.276-7.006,4.762-7.863
		l32.048-7.87c3.486-0.856,7.006,1.276,7.863,4.762v0C2015.611,71.211,2013.479,74.731,2009.993,75.588z"/>
	<path class="st12" d="M1991.391-0.162l-32.048,7.87c-3.486,0.856-7.006-1.276-7.863-4.762v0c-0.856-3.486,1.276-7.006,4.762-7.863
		l32.048-7.87c3.486-0.856,7.006,1.276,7.863,4.762v0C1997.009-4.538,1994.877-1.018,1991.391-0.162z"/>
	<path class="st12" d="M2115.027,130.111l-32.048,7.87c-3.486,0.856-7.007-1.276-7.863-4.762l0,0
		c-0.856-3.486,1.276-7.006,4.762-7.863l32.048-7.87c3.486-0.856,7.007,1.276,7.863,4.762v0
		C2120.645,125.735,2118.513,129.255,2115.027,130.111z"/>
	<path class="st12" d="M2121.228,155.361l-32.048,7.87c-3.486,0.856-7.007-1.276-7.863-4.762l0,0
		c-0.856-3.486,1.276-7.006,4.762-7.863l32.048-7.87c3.486-0.856,7.006,1.276,7.863,4.762v0
		C2126.846,150.985,2124.714,154.505,2121.228,155.361z"/>
	<path class="st12" d="M2127.428,180.611l-32.048,7.87c-3.486,0.856-7.007-1.276-7.863-4.762v0
		c-0.856-3.486,1.276-7.006,4.762-7.863l32.048-7.87c3.486-0.856,7.006,1.276,7.863,4.762v0
		C2133.047,176.234,2130.915,179.755,2127.428,180.611z"/>
	<path class="st12" d="M2102.625,79.612l-32.048,7.87c-3.486,0.856-7.006-1.276-7.863-4.762v0c-0.856-3.486,1.276-7.006,4.762-7.863
		l32.048-7.87c3.486-0.856,7.007,1.276,7.863,4.762v0C2108.244,75.235,2106.112,78.756,2102.625,79.612z"/>
	<path class="st12" d="M2108.826,104.862l-32.048,7.87c-3.486,0.856-7.006-1.276-7.863-4.762v0
		c-0.856-3.486,1.276-7.006,4.762-7.863l32.048-7.87c3.486-0.856,7.007,1.276,7.863,4.762v0
		C2114.444,100.485,2112.312,104.005,2108.826,104.862z"/>
	<path class="st12" d="M2084.023,3.862l-32.048,7.87c-3.486,0.856-7.006-1.276-7.863-4.762v0c-0.856-3.486,1.276-7.006,4.762-7.863
		l32.048-7.87c3.486-0.856,7.006,1.276,7.863,4.762v0C2089.642-0.514,2087.509,3.006,2084.023,3.862z"/>
	<path class="st12" d="M2090.224,29.112l-32.048,7.87c-3.486,0.856-7.007-1.276-7.863-4.762v0c-0.856-3.486,1.276-7.006,4.762-7.863
		l32.048-7.87c3.486-0.856,7.006,1.276,7.863,4.762v0C2095.842,24.736,2093.71,28.256,2090.224,29.112z"/>
	<path class="st12" d="M2096.425,54.362l-32.048,7.87c-3.486,0.856-7.006-1.276-7.863-4.762v0c-0.856-3.486,1.276-7.006,4.762-7.863
		l32.048-7.87c3.486-0.856,7.006,1.276,7.863,4.762v0C2102.043,49.986,2099.911,53.506,2096.425,54.362z"/>
	<path class="st12" d="M2059.121,275.643l-32.048,7.87c-3.486,0.856-7.006-1.276-7.863-4.762l0,0
		c-0.856-3.486,1.276-7.006,4.762-7.863l32.048-7.87c3.486-0.856,7.007,1.276,7.863,4.762v0
		C2064.74,271.267,2062.608,274.787,2059.121,275.643z"/>
	<path class="st12" d="M2065.322,300.893l-32.048,7.87c-3.486,0.856-7.006-1.276-7.863-4.762l0,0
		c-0.856-3.486,1.276-7.007,4.762-7.863l32.048-7.87c3.486-0.856,7.006,1.276,7.863,4.762l0,0
		C2070.941,296.517,2068.808,300.037,2065.322,300.893z"/>
	<path class="st12" d="M2046.72,225.144l-32.048,7.87c-3.486,0.856-7.006-1.276-7.863-4.762v0c-0.856-3.486,1.276-7.006,4.762-7.863
		l32.048-7.87c3.486-0.856,7.007,1.276,7.863,4.762v0C2052.338,220.768,2050.206,224.288,2046.72,225.144z"/>
	<path class="st12" d="M2052.921,250.394l-32.048,7.87c-3.486,0.856-7.006-1.276-7.863-4.762v0
		c-0.856-3.486,1.276-7.006,4.762-7.863l32.048-7.87c3.486-0.856,7.007,1.276,7.863,4.762l0,0
		C2058.539,246.017,2056.407,249.538,2052.921,250.394z"/>
	<path class="st12" d="M2145.553,254.418l-32.048,7.87c-3.486,0.856-7.007-1.276-7.863-4.762v0
		c-0.856-3.486,1.276-7.006,4.762-7.863l32.048-7.87c3.486-0.856,7.007,1.276,7.863,4.762v0
		C2151.172,250.042,2149.04,253.562,2145.553,254.418z"/>
	<path class="st12" d="M2151.754,279.668l-32.048,7.87c-3.486,0.856-7.007-1.276-7.863-4.762l0,0
		c-0.856-3.486,1.276-7.007,4.762-7.863l32.048-7.87c3.486-0.856,7.006,1.276,7.863,4.762l0,0
		C2157.373,275.291,2155.24,278.812,2151.754,279.668z"/>
	<path class="st12" d="M2157.955,304.917l-32.048,7.87c-3.486,0.856-7.006-1.276-7.863-4.762v0
		c-0.856-3.486,1.276-7.006,4.762-7.863l32.048-7.87c3.486-0.856,7.006,1.276,7.863,4.762l0,0
		C2163.573,300.541,2161.441,304.061,2157.955,304.917z"/>
	<path class="st12" d="M2133.152,203.918l-32.048,7.87c-3.486,0.856-7.006-1.276-7.863-4.762v0
		c-0.856-3.486,1.276-7.006,4.762-7.863l32.048-7.87c3.486-0.856,7.007,1.276,7.863,4.762l0,0
		C2138.77,199.542,2136.638,203.062,2133.152,203.918z"/>
	<path class="st12" d="M2139.353,229.168l-32.048,7.87c-3.486,0.856-7.007-1.276-7.863-4.762v0
		c-0.856-3.486,1.276-7.006,4.762-7.863l32.048-7.87c3.486-0.856,7.007,1.276,7.863,4.762v0
		C2144.971,224.792,2142.839,228.312,2139.353,229.168z"/>
	<path class="st12" d="M1266.861,266.939l-32.703-4.419c-3.557-0.481-6.052-3.754-5.571-7.312v0
		c0.481-3.558,3.754-6.052,7.312-5.571l32.703,4.419c3.558,0.481,6.052,3.754,5.571,7.312l0,0
		C1273.693,264.926,1270.419,267.42,1266.861,266.939z"/>
	<path class="st12" d="M1263.38,292.705l-32.703-4.419c-3.557-0.481-6.052-3.754-5.571-7.312l0,0
		c0.481-3.558,3.754-6.052,7.312-5.571l32.703,4.419c3.557,0.481,6.052,3.754,5.571,7.312l0,0
		C1270.211,290.692,1266.937,293.186,1263.38,292.705z"/>
	<path class="st12" d="M1273.825,215.408l-32.703-4.419c-3.557-0.481-6.052-3.754-5.571-7.312v0
		c0.481-3.558,3.754-6.052,7.312-5.571l32.703,4.419c3.557,0.481,6.052,3.754,5.571,7.312v0
		C1280.656,213.394,1277.382,215.888,1273.825,215.408z"/>
	<path class="st12" d="M1270.343,241.173l-32.703-4.419c-3.557-0.481-6.052-3.754-5.571-7.312v0
		c0.481-3.558,3.754-6.052,7.312-5.571l32.703,4.419c3.557,0.481,6.052,3.754,5.571,7.312v0
		C1277.174,239.16,1273.901,241.654,1270.343,241.173z"/>
	<path class="st12" d="M1355.06,278.858l-32.703-4.419c-3.557-0.481-6.052-3.754-5.571-7.312l0,0
		c0.481-3.558,3.754-6.052,7.312-5.571l32.703,4.419c3.558,0.481,6.052,3.754,5.571,7.312l0,0
		C1361.891,276.844,1358.617,279.338,1355.06,278.858z"/>
	<path class="st12" d="M1351.578,304.624l-32.703-4.419c-3.557-0.481-6.052-3.754-5.571-7.312l0,0
		c0.481-3.558,3.754-6.052,7.312-5.571l32.703,4.419c3.557,0.481,6.052,3.754,5.571,7.312l0,0
		C1358.409,302.61,1355.135,305.104,1351.578,304.624z"/>
	<path class="st12" d="M1362.023,227.326l-32.703-4.419c-3.558-0.481-6.052-3.754-5.571-7.312l0,0
		c0.481-3.558,3.754-6.052,7.312-5.571l32.703,4.419c3.557,0.481,6.052,3.754,5.571,7.312v0
		C1368.854,225.313,1365.581,227.807,1362.023,227.326z"/>
	<path class="st12" d="M1358.542,253.092l-32.703-4.419c-3.557-0.481-6.052-3.754-5.571-7.312v0
		c0.481-3.558,3.754-6.052,7.312-5.571l32.703,4.419c3.557,0.481,6.052,3.754,5.571,7.312v0
		C1365.373,251.078,1362.099,253.573,1358.542,253.092z"/>
	<path class="st12" d="M329.622,120.049l-32.76-3.971c-3.564-0.432-6.103-3.671-5.671-7.235v0c0.432-3.564,3.671-6.103,7.235-5.671
		l32.76,3.971c3.564,0.432,6.103,3.671,5.671,7.235v0C336.425,117.942,333.186,120.481,329.622,120.049z"/>
	<path class="st12" d="M326.494,145.86l-32.76-3.971c-3.564-0.432-6.103-3.671-5.671-7.235l0,0c0.432-3.564,3.671-6.103,7.235-5.671
		l32.76,3.971c3.564,0.432,6.103,3.671,5.671,7.235v0C333.297,143.753,330.057,146.292,326.494,145.86z"/>
	<path class="st12" d="M323.365,171.671l-32.76-3.971c-3.564-0.432-6.103-3.671-5.671-7.235v0c0.432-3.564,3.671-6.103,7.235-5.671
		l32.76,3.971c3.564,0.432,6.103,3.671,5.671,7.235v0C330.168,169.564,326.929,172.103,323.365,171.671z"/>
	<path class="st12" d="M335.879,68.426l-32.76-3.971c-3.564-0.432-6.103-3.671-5.671-7.235v0c0.432-3.564,3.671-6.103,7.235-5.671
		l32.76,3.971c3.564,0.432,6.103,3.671,5.671,7.235v0C342.682,66.32,339.443,68.858,335.879,68.426z"/>
	<path class="st12" d="M332.751,94.238l-32.76-3.971c-3.564-0.432-6.103-3.671-5.671-7.235v0c0.432-3.564,3.671-6.103,7.235-5.671
		l32.76,3.971c3.564,0.432,6.103,3.671,5.671,7.235v0C339.554,92.131,336.314,94.67,332.751,94.238z"/>
	<path class="st12" d="M342.136,16.804l-32.76-3.971c-3.564-0.432-6.103-3.671-5.671-7.235v0c0.432-3.564,3.671-6.103,7.235-5.671
		l32.76,3.971c3.564,0.432,6.103,3.671,5.671,7.235l0,0C348.939,14.697,345.7,17.236,342.136,16.804z"/>
	<path class="st12" d="M339.008,42.615l-32.76-3.971c-3.564-0.432-6.103-3.671-5.671-7.235v0c0.432-3.564,3.671-6.103,7.235-5.671
		l32.76,3.971c3.564,0.432,6.103,3.671,5.671,7.235v0C345.811,40.508,342.571,43.047,339.008,42.615z"/>
	<path class="st12" d="M417.976,130.758l-32.76-3.971c-3.564-0.432-6.103-3.671-5.671-7.235v0c0.432-3.564,3.671-6.103,7.235-5.671
		l32.76,3.971c3.564,0.432,6.103,3.671,5.671,7.235v0C424.779,128.651,421.539,131.19,417.976,130.758z"/>
	<path class="st12" d="M414.847,156.569l-32.76-3.971c-3.564-0.432-6.103-3.671-5.671-7.235v0c0.432-3.564,3.671-6.103,7.235-5.671
		l32.76,3.971c3.564,0.432,6.103,3.671,5.671,7.235v0C421.65,154.462,418.411,157.001,414.847,156.569z"/>
	<path class="st12" d="M411.719,182.38l-32.76-3.971c-3.564-0.432-6.103-3.671-5.671-7.235v0c0.432-3.564,3.671-6.103,7.235-5.671
		l32.76,3.971c3.564,0.432,6.103,3.671,5.671,7.235v0C418.522,180.273,415.282,182.812,411.719,182.38z"/>
	<path class="st12" d="M424.233,79.135l-32.76-3.971c-3.564-0.432-6.103-3.671-5.671-7.235v0c0.432-3.564,3.671-6.103,7.235-5.671
		l32.76,3.971c3.564,0.432,6.103,3.671,5.671,7.235v0C431.035,77.029,427.796,79.567,424.233,79.135z"/>
	<path class="st12" d="M421.104,104.947l-32.76-3.971c-3.564-0.432-6.103-3.671-5.671-7.235v0c0.432-3.564,3.671-6.103,7.235-5.671
		l32.76,3.971c3.564,0.432,6.103,3.671,5.671,7.235v0C427.907,102.84,424.668,105.379,421.104,104.947z"/>
	<path class="st12" d="M433.618,1.702l-32.76-3.971c-3.564-0.432-6.103-3.671-5.671-7.235v0c0.432-3.564,3.671-6.103,7.235-5.671
		l32.76,3.971c3.564,0.432,6.103,3.671,5.671,7.235v0C440.421-0.405,437.182,2.134,433.618,1.702z"/>
	<path class="st12" d="M430.489,27.513l-32.76-3.971c-3.564-0.432-6.103-3.671-5.671-7.235v0c0.432-3.564,3.671-6.103,7.235-5.671
		l32.76,3.971c3.564,0.432,6.103,3.671,5.671,7.235v0C437.292,25.406,434.053,27.945,430.489,27.513z"/>
	<path class="st12" d="M427.361,53.324l-32.76-3.971c-3.564-0.432-6.103-3.671-5.671-7.235v0c0.432-3.564,3.671-6.103,7.235-5.671
		l32.76,3.971c3.564,0.432,6.103,3.671,5.671,7.235v0C434.164,51.217,430.925,53.756,427.361,53.324z"/>
	<path class="st12" d="M314.22,247.119l-32.76-3.971c-3.564-0.432-6.103-3.671-5.671-7.235l0,0c0.432-3.564,3.671-6.103,7.235-5.671
		l32.76,3.971c3.564,0.432,6.103,3.671,5.671,7.235v0C321.023,245.012,317.784,247.551,314.22,247.119z"/>
	<path class="st12" d="M311.092,272.93l-32.76-3.971c-3.564-0.432-6.103-3.671-5.671-7.235l0,0c0.432-3.564,3.671-6.103,7.235-5.671
		l32.76,3.971c3.564,0.432,6.103,3.671,5.671,7.235l0,0C317.895,270.823,314.656,273.362,311.092,272.93z"/>
	<path class="st12" d="M307.964,298.741l-32.76-3.971c-3.564-0.432-6.103-3.671-5.671-7.235l0,0
		c0.432-3.564,3.671-6.103,7.235-5.671l32.76,3.971c3.564,0.432,6.103,3.671,5.671,7.235l0,0
		C314.766,296.634,311.527,299.173,307.964,298.741z"/>
	<path class="st12" d="M320.477,195.496l-32.76-3.971c-3.564-0.432-6.103-3.671-5.671-7.235v0c0.432-3.564,3.671-6.103,7.235-5.671
		l32.76,3.971c3.564,0.432,6.103,3.671,5.671,7.235v0C327.28,193.39,324.041,195.928,320.477,195.496z"/>
	<path class="st12" d="M317.349,221.308l-32.76-3.971c-3.564-0.432-6.103-3.671-5.671-7.235v0c0.432-3.564,3.671-6.103,7.235-5.671
		l32.76,3.971c3.564,0.432,6.103,3.671,5.671,7.235v0C324.152,219.201,320.913,221.74,317.349,221.308z"/>
	<path class="st12" d="M402.574,257.828l-32.76-3.971c-3.564-0.432-6.103-3.671-5.671-7.235v0c0.432-3.564,3.671-6.103,7.235-5.671
		l32.76,3.971c3.564,0.432,6.103,3.671,5.671,7.235l0,0C409.377,255.721,406.138,258.26,402.574,257.828z"/>
	<path class="st12" d="M399.445,283.639l-32.76-3.971c-3.564-0.432-6.103-3.671-5.671-7.235l0,0
		c0.432-3.564,3.671-6.103,7.235-5.671l32.76,3.971c3.564,0.432,6.103,3.671,5.671,7.235l0,0
		C406.248,281.532,403.009,284.071,399.445,283.639z"/>
	<path class="st12" d="M396.317,309.45l-32.76-3.971c-3.564-0.432-6.103-3.671-5.671-7.235l0,0c0.432-3.564,3.671-6.103,7.235-5.671
		l32.76,3.971c3.564,0.432,6.103,3.671,5.671,7.235l0,0C403.12,307.343,399.881,309.882,396.317,309.45z"/>
	<path class="st12" d="M408.831,206.205l-32.76-3.971c-3.564-0.432-6.103-3.671-5.671-7.235v0c0.432-3.564,3.671-6.103,7.235-5.671
		l32.76,3.971c3.564,0.432,6.103,3.671,5.671,7.235v0C415.634,204.099,412.395,206.637,408.831,206.205z"/>
	<path class="st12" d="M405.702,232.017l-32.76-3.971c-3.564-0.432-6.103-3.671-5.671-7.235v0c0.432-3.564,3.671-6.103,7.235-5.671
		l32.76,3.971c3.564,0.432,6.103,3.671,5.671,7.235l0,0C412.505,229.91,409.266,232.449,405.702,232.017z"/>
	<path class="st13" d="M1251.517,191.753l19.886,2.13c7.413,0.794,14.067-4.572,14.861-11.985l11.715-109.374
		c0.794-7.413-4.572-14.067-11.985-14.861l-19.886-2.13c-7.413-0.794-14.067,4.572-14.861,11.985l-11.715,109.374
		C1238.738,184.305,1244.104,190.959,1251.517,191.753z"/>
	<path class="st13" d="M1341.005,201.338l19.886,2.13c7.413,0.794,14.067-4.572,14.861-11.985l11.715-109.374
		c0.794-7.413-4.572-14.067-11.985-14.861l-19.886-2.13c-7.413-0.794-14.067,4.572-14.861,11.985l-11.715,109.374
		C1328.226,193.89,1333.592,200.544,1341.005,201.338z"/>
	<path class="st14" d="M1356.449,78.283l-75.071-8.041c-8.924-0.956-16.932,5.503-17.888,14.427l-8.041,75.071
		c-0.956,8.924,5.503,16.932,14.427,17.888l75.071,8.041c8.924,0.956,16.932-5.503,17.888-14.427l8.041-75.071
		C1371.832,87.248,1365.373,79.239,1356.449,78.283z"/>
	<path class="st15" d="M1330.031,162.951l-40.767-4.367c-7.963-0.853-13.726-7.999-12.873-15.962l4.367-40.767
		c0.853-7.963,7.999-13.726,15.962-12.873l40.767,4.367c7.963,0.853,13.726,7.999,12.873,15.962l-4.367,40.767
		C1345.14,158.04,1337.994,163.804,1330.031,162.951z"/>
	<path class="st16" d="M1336.74,72.149l-7.955-0.852c-1.647-0.176-2.84-1.655-2.663-3.302v0c0.176-1.647,1.655-2.84,3.302-2.663
		l7.955,0.852c1.647,0.176,2.84,1.655,2.663,3.302v0C1339.866,71.133,1338.388,72.325,1336.74,72.149z"/>
	<path class="st16" d="M1310.888,69.38l-7.954-0.852c-1.647-0.176-2.84-1.655-2.663-3.302l0,0c0.177-1.647,1.655-2.84,3.302-2.663
		l7.954,0.852c1.647,0.176,2.84,1.655,2.663,3.302v0C1314.014,68.364,1312.536,69.556,1310.888,69.38z"/>
	<path class="st17" d="M1327.58,129.5l-28.835-3.089c-9.061-0.971-15.619-9.103-14.649-18.163l3.089-28.835
		c0.97-9.061,9.103-15.619,18.163-14.649l28.835,3.089c9.061,0.971,15.619,9.103,14.649,18.163l-3.089,28.835
		C1344.773,123.912,1336.641,130.47,1327.58,129.5z"/>
	
		<ellipse transform="matrix(0.1065 -0.9943 0.9943 0.1065 1083.3107 1468.1616)" class="st18" cx="1358.564" cy="131.31" rx="3.5" ry="3.5"/>
	
		<ellipse transform="matrix(0.1065 -0.9943 0.9943 0.1065 1092.613 1463.9185)" class="st19" cx="1360.854" cy="124.012" rx="2" ry="2"/>
	
		<ellipse transform="matrix(0.1065 -0.9943 0.9943 0.1065 1098.0321 1460.0059)" class="st20" cx="1361.386" cy="119.041" rx="2" ry="2"/>
	<path class="st21" d="M1337.809,188.927l-17.898-1.917c-2.197-0.235-3.786-2.207-3.551-4.403l0,0
		c0.235-2.197,2.207-3.787,4.403-3.551l17.898,1.917c2.197,0.235,3.786,2.207,3.551,4.403l0,0
		C1341.977,187.572,1340.006,189.162,1337.809,188.927z"/>
	<path class="st22" d="M1320.265,122.682l-11.932-1.278c-2.471-0.265-4.26-2.483-3.995-4.954v0c0.265-2.471,2.483-4.26,4.954-3.995
		l11.932,1.278c2.471,0.265,4.26,2.483,3.995,4.954v0C1324.954,121.158,1322.736,122.946,1320.265,122.682z"/>
</g>
</svg>
