<?xml version="1.0" encoding="utf-8"?>
<!-- Generator: Adobe Illustrator 21.1.0, SVG Export Plug-In . SVG Version: 6.00 Build 0)  -->
<svg version="1.1" xmlns="http://www.w3.org/2000/svg" xmlns:xlink="http://www.w3.org/1999/xlink" x="0px" y="0px"
	 viewBox="0 0 2400 520" style="enable-background:new 0 0 2400 520;" xml:space="preserve">
<style type="text/css">
	.st0{display:none;}
	.st1{display:inline;}
	.st2{fill:#3E324F;}
	.st3{fill:#393044;}
	.st4{fill:#506068;}
	.st5{fill:#66A4BF;}
	.st6{fill:#546277;}
	.st7{fill:#6883AF;}
	.st8{fill:#993F6A;}
	.st9{fill:#C374D6;}
	.st10{fill:#FFFFFF;}
	.st11{fill:#F9EBB2;}
	.st12{fill:#78ACFF;}
	.st13{fill:#9FEBFF;}
	.st14{fill:#5C7A6A;}
	.st15{fill:#60A093;}
	.st16{opacity:0.1;fill:#FFFFFF;}
	.st17{fill:#664265;}
	.st18{fill:#944DB5;}
	.st19{fill:#AEBCC4;}
	.st20{fill:#E5DDD8;}
	.st21{opacity:0.1;}
	.st22{opacity:0.1;fill:#FF5B45;}
	.st23{opacity:0.2;fill:#FF5B45;}
	.st24{fill:#EDC988;}
	.st25{opacity:0.1;fill:#7BFFC3;}
	.st26{opacity:0.2;fill:#7BFFC3;}
	.st27{fill:#B3FFF6;}
</style>
<g id="Слой_1" class="st0">
	<g class="st1">
		<rect x="-35" y="-23.563" class="st2" width="2436" height="563.232"/>
	</g>
</g>
<g id="Слой_3">
	<path class="st3" d="M660.684,272.83H335.382c-35.557,0-64.382-28.825-64.382-64.382v0c0-35.557,28.825-64.382,64.382-64.382
		h325.301c35.557,0,64.383,28.825,64.383,64.382v0C725.066,244.005,696.241,272.83,660.684,272.83z"/>
	<path class="st3" d="M791.708,337.213H466.407c-35.557,0-64.382-28.825-64.382-64.382v0c0-35.557,28.825-64.382,64.382-64.382
		h325.301c35.557,0,64.382,28.825,64.382,64.382v0C856.091,308.388,827.266,337.213,791.708,337.213z"/>
	<path class="st3" d="M526.271,191.505h-98.268c-35.557,0-64.382-28.825-64.382-64.382v0c0-35.557,28.825-64.382,64.382-64.382
		h98.268c35.557,0,64.382,28.825,64.382,64.382v0C590.654,162.68,561.829,191.505,526.271,191.505z"/>
	<path class="st3" d="M2312.163,393.301h-246.755c-26.972,0-48.837-21.865-48.837-48.837v0c0-26.972,21.865-48.837,48.837-48.837
		h246.755c26.972,0,48.837,21.865,48.837,48.837v0C2361,371.436,2339.135,393.301,2312.163,393.301z"/>
	<path class="st3" d="M2140.537,433.435h-246.754c-26.972,0-48.837-21.865-48.837-48.837v0c0-26.972,21.865-48.837,48.837-48.837
		h246.754c26.972,0,48.837,21.865,48.837,48.837v0C2189.374,411.57,2167.509,433.435,2140.537,433.435z"/>
	<path class="st3" d="M2069.726,478.307h-74.54c-26.972,0-48.837-21.865-48.837-48.837v0c0-26.972,21.865-48.837,48.837-48.837
		h74.54c26.972,0,48.837,21.865,48.837,48.837v0C2118.563,456.442,2096.698,478.307,2069.726,478.307z"/>
	<path class="st3" d="M1414.5-203.787h433c101.344,0,183.5,82.156,183.5,183.5v0c0,101.344-82.156,183.5-183.5,183.5h-433
		c-101.344,0-183.5-82.156-183.5-183.5v0C1231-121.632,1313.156-203.787,1414.5-203.787z"/>
	<path class="st3" d="M1513,74.213h110c48.049,0,87,38.951,87,87v0c0,48.049-38.951,87-87,87h-110c-48.049,0-87-38.951-87-87v0
		C1426,113.164,1464.951,74.213,1513,74.213z"/>
	<path class="st3" d="M1192,375.213h63c51.915,0,94,42.085,94,94v0c0,51.915-42.085,94-94,94h-63c-51.915,0-94-42.085-94-94v0
		C1098,417.298,1140.085,375.213,1192,375.213z"/>
	<path class="st3" d="M1341.5,445.213h-45c-26.234,0-47.5-21.266-47.5-47.5v0c0-26.234,21.266-47.5,47.5-47.5h45
		c26.234,0,47.5,21.266,47.5,47.5v0C1389,423.946,1367.734,445.213,1341.5,445.213z"/>
</g>
<g id="Слой_2">
	
		<ellipse transform="matrix(0.4891 -0.8722 0.8722 0.4891 477.851 1733.5077)" class="st4" cx="1718.677" cy="458.852" rx="58.331" ry="58.331"/>
	<path class="st5" d="M1744.079,412.908l-51.199,91.305c-25.108-14.177-34.027-46.008-19.915-71.175
		C1687.077,407.872,1718.887,398.879,1744.079,412.908z"/>
	<path class="st5" d="M1746.834,420.792l-6.074-3.406c-1.332-0.747-1.806-2.432-1.059-3.763h0c0.747-1.332,2.432-1.806,3.763-1.059
		l6.074,3.406c1.332,0.747,1.806,2.432,1.059,3.763l0,0C1749.851,421.065,1748.166,421.539,1746.834,420.792z"/>
	<path class="st4" d="M1759.928,434.473l-25.997-14.578c-1.332-0.747-1.806-2.432-1.059-3.763l0,0
		c0.747-1.332,2.432-1.806,3.763-1.059l25.997,14.578c1.332,0.747,1.806,2.432,1.059,3.763l0,0
		C1762.945,434.746,1761.26,435.22,1759.928,434.473z"/>
	<path class="st5" d="M1754.051,437.517l-20.074-11.256c-1.332-0.747-1.806-2.432-1.059-3.763v0
		c0.747-1.332,2.432-1.806,3.763-1.059l20.074,11.256c1.332,0.747,1.806,2.432,1.059,3.763l0,0
		C1757.068,437.789,1755.383,438.263,1754.051,437.517z"/>
	<path class="st4" d="M1754.52,444.118l-26.102-14.637c-1.332-0.747-1.806-2.432-1.059-3.763l0,0
		c0.747-1.332,2.432-1.806,3.763-1.059l26.102,14.637c1.332,0.747,1.806,2.432,1.059,3.763l0,0
		C1757.536,444.391,1755.851,444.865,1754.52,444.118z"/>
	<path class="st5" d="M1767.65,457.82l-42.931-24.073c-1.332-0.747-1.806-2.432-1.059-3.763l0,0
		c0.747-1.332,2.432-1.806,3.763-1.059l42.931,24.073c1.332,0.747,1.806,2.432,1.059,3.763v0
		C1770.666,458.092,1768.981,458.566,1767.65,457.82z"/>
	<path class="st4" d="M1749.111,453.763l-22.135-12.412c-1.332-0.747-1.806-2.432-1.059-3.763l0,0
		c0.747-1.332,2.432-1.806,3.763-1.059l22.135,12.412c1.332,0.747,1.806,2.432,1.059,3.763l0,0
		C1752.128,454.036,1750.443,454.51,1749.111,453.763z"/>
	<path class="st5" d="M1745.586,458.126l-26.276-14.734c-1.332-0.747-1.806-2.432-1.059-3.763l0,0
		c0.747-1.332,2.432-1.806,3.763-1.059l26.276,14.734c1.332,0.747,1.806,2.432,1.059,3.763l0,0
		C1748.603,458.398,1746.918,458.872,1745.586,458.126z"/>
	<path class="st4" d="M1743.703,463.409l-33.885-19.001c-1.332-0.747-1.806-2.432-1.059-3.763l0,0
		c0.747-1.332,2.432-1.806,3.763-1.059l33.885,19.001c1.332,0.747,1.806,2.432,1.059,3.763v0
		C1746.719,463.681,1745.035,464.155,1743.703,463.409z"/>
	<path class="st5" d="M1745.811,470.93l-33.285-18.664c-1.332-0.747-1.806-2.432-1.059-3.763l0,0
		c0.747-1.332,2.432-1.806,3.763-1.059l33.285,18.664c1.332,0.747,1.806,2.432,1.059,3.763v0
		C1748.828,471.202,1747.143,471.677,1745.811,470.93z"/>
	<path class="st4" d="M1738.294,473.054l-27.994-15.698c-1.332-0.747-1.806-2.432-1.059-3.763v0
		c0.747-1.332,2.432-1.806,3.763-1.059l27.994,15.698c1.332,0.747,1.806,2.432,1.059,3.763l0,0
		C1741.311,473.326,1739.626,473.8,1738.294,473.054z"/>
	<path class="st5" d="M1733.368,476.63l-24.049-13.486c-1.332-0.747-1.806-2.432-1.059-3.763l0,0
		c0.747-1.332,2.432-1.806,3.763-1.059l24.049,13.486c1.332,0.747,1.806,2.432,1.059,3.763l0,0
		C1736.384,476.902,1734.699,477.377,1733.368,476.63z"/>
	<path class="st4" d="M1732.886,482.699l-34.325-19.248c-1.332-0.747-1.806-2.432-1.059-3.763l0,0
		c0.747-1.332,2.432-1.806,3.763-1.059l34.325,19.248c1.332,0.747,1.806,2.432,1.059,3.763l0,0
		C1735.903,482.971,1734.218,483.445,1732.886,482.699z"/>
	<path class="st5" d="M1719.352,481.448l-14.342-8.042c-1.332-0.747-1.806-2.432-1.059-3.763l0,0
		c0.747-1.332,2.432-1.806,3.763-1.059l14.342,8.042c1.332,0.747,1.806,2.432,1.059,3.763l0,0
		C1722.369,481.721,1720.684,482.195,1719.352,481.448z"/>
	<path class="st4" d="M1727.478,492.344l-39.437-22.114c-1.332-0.747-1.806-2.432-1.059-3.763l0,0
		c0.747-1.332,2.432-1.806,3.763-1.059l39.437,22.114c1.332,0.747,1.806,2.432,1.059,3.763l0,0
		C1730.494,492.616,1728.809,493.09,1727.478,492.344z"/>
	<path class="st5" d="M1720.891,494.989l-21.29-11.938c-1.332-0.747-1.806-2.432-1.059-3.763v0c0.747-1.332,2.432-1.806,3.763-1.059
		l21.29,11.938c1.332,0.747,1.806,2.432,1.059,3.763v0C1723.908,495.262,1722.223,495.736,1720.891,494.989z"/>
	<path class="st4" d="M1722.069,501.989l-35.347-19.821c-1.332-0.747-1.806-2.432-1.059-3.763l0,0
		c0.747-1.332,2.432-1.806,3.763-1.059l35.347,19.821c1.332,0.747,1.806,2.432,1.059,3.763l0,0
		C1725.086,502.261,1723.401,502.736,1722.069,501.989z"/>
	<path class="st5" d="M1717.162,505.394l-22.583-12.663c-1.291-0.724-1.751-2.357-1.027-3.648l0,0
		c0.724-1.291,2.357-1.751,3.648-1.027l22.583,12.663c1.291,0.724,1.751,2.357,1.027,3.648l0,0
		C1720.087,505.659,1718.453,506.118,1717.162,505.394z"/>
	<path class="st4" d="M1716.77,511.44l-26.272-14.732c-1.332-0.747-1.806-2.432-1.059-3.763l0,0
		c0.747-1.332,2.432-1.806,3.763-1.059l26.272,14.732c1.332,0.747,1.806,2.432,1.059,3.763l0,0
		C1719.786,511.712,1718.101,512.187,1716.77,511.44z"/>
	<path class="st5" d="M1704.083,510.495l-11.89-6.667c-1.291-0.724-1.751-2.357-1.027-3.648v0c0.724-1.291,2.357-1.751,3.648-1.027
		l11.89,6.667c1.291,0.724,1.751,2.357,1.027,3.648l0,0C1707.007,510.759,1705.374,511.219,1704.083,510.495z"/>
	
		<ellipse transform="matrix(0.963 -0.2694 0.2694 0.963 -89.9288 81.6807)" class="st6" cx="252.61" cy="368.464" rx="136.346" ry="136.346"/>
	<path class="st7" d="M220.26,250.091l65.922,235.638c64.853-18.35,102.674-85.731,84.503-150.681
		C352.515,270.099,285.221,232.125,220.26,250.091z"/>
	<path class="st7" d="M201.682,268.709l23.644-6.615c3.437-0.961,5.444-4.527,4.482-7.964v0c-0.961-3.437-4.527-5.444-7.964-4.482
		l-23.644,6.615c-3.437,0.961-5.444,4.527-4.482,7.964v0C194.68,267.664,198.245,269.67,201.682,268.709z"/>
	<path class="st6" d="M172.362,290.331l57.93-16.206c3.437-0.961,5.444-4.527,4.482-7.964l0,0c-0.961-3.437-4.527-5.444-7.964-4.482
		l-57.93,16.206c-3.437,0.961-5.444,4.527-4.482,7.964v0C165.359,289.286,168.925,291.293,172.362,290.331z"/>
	<path class="st7" d="M180.998,301.335l54.841-15.342c3.437-0.961,5.444-4.527,4.482-7.964l0,0
		c-0.961-3.437-4.527-5.444-7.964-4.482l-54.841,15.342c-3.437,0.961-5.444,4.527-4.482,7.964h0
		C173.996,300.29,177.561,302.297,180.998,301.335z"/>
	<path class="st6" d="M179.326,315.223l76.772-21.478c3.437-0.961,5.444-4.527,4.482-7.964v0c-0.961-3.437-4.527-5.444-7.964-4.482
		l-76.772,21.478c-3.437,0.961-5.444,4.527-4.482,7.964l0,0C172.323,314.178,175.889,316.185,179.326,315.223z"/>
	<path class="st7" d="M149.187,337.075l103.552-28.969c3.437-0.961,5.444-4.527,4.482-7.964l0,0
		c-0.961-3.437-4.527-5.444-7.964-4.482l-103.552,28.969c-3.437,0.961-5.444,4.527-4.482,7.964l0,0
		C142.185,336.03,145.75,338.036,149.187,337.075z"/>
	<path class="st6" d="M186.289,340.115l89.329-24.991c3.437-0.961,5.444-4.527,4.482-7.964l0,0
		c-0.961-3.437-4.527-5.444-7.964-4.482l-89.329,24.991c-3.437,0.961-5.444,4.527-4.482,7.964l0,0
		C179.287,339.07,182.852,341.077,186.289,340.115z"/>
	<path class="st7" d="M194.785,351.158l64.917-18.161c3.437-0.961,5.444-4.527,4.482-7.964l0,0
		c-0.961-3.437-4.527-5.444-7.964-4.482l-64.917,18.161c-3.437,0.961-5.444,4.527-4.482,7.964v0
		C187.783,350.113,191.349,352.12,194.785,351.158z"/>
	<path class="st6" d="M193.253,365.007l69.199-19.359c3.437-0.961,5.444-4.527,4.482-7.964l0,0
		c-0.961-3.437-4.527-5.444-7.964-4.482l-69.199,19.359c-3.437,0.961-5.444,4.527-4.482,7.964h0
		C186.251,363.962,189.816,365.969,193.253,365.007z"/>
	<path class="st7" d="M136.897,394.193l133.318-37.297c3.437-0.961,5.444-4.527,4.482-7.964v0c-0.961-3.437-4.527-5.444-7.964-4.482
		l-133.318,37.297c-3.437,0.961-5.444,4.527-4.482,7.964l0,0C129.895,393.148,133.46,395.155,136.897,394.193z"/>
	<path class="st6" d="M200.217,389.899l55.027-15.394c3.437-0.961,5.444-4.527,4.482-7.964v0c-0.961-3.437-4.527-5.444-7.964-4.482
		l-55.027,15.394c-3.437,0.961-5.444,4.527-4.482,7.964l0,0C193.214,388.854,196.78,390.861,200.217,389.899z"/>
	<path class="st7" d="M188.578,406.575l82.923-23.198c3.437-0.961,5.444-4.527,4.482-7.964l0,0
		c-0.961-3.437-4.527-5.444-7.964-4.482l-82.923,23.198c-3.437,0.961-5.444,4.527-4.482,7.964l0,0
		C181.575,405.53,185.141,407.537,188.578,406.575z"/>
	<path class="st6" d="M207.18,414.791l103.844-29.051c3.437-0.961,5.444-4.527,4.482-7.964h0c-0.961-3.437-4.527-5.444-7.964-4.482
		l-103.844,29.051c-3.437,0.961-5.444,4.527-4.482,7.964v0C200.178,413.746,203.743,415.752,207.18,414.791z"/>
	<path class="st7" d="M162.677,440.661l112.949-31.598c3.437-0.961,5.444-4.527,4.482-7.964v0c-0.961-3.437-4.527-5.444-7.964-4.482
		l-112.949,31.598c-3.437,0.961-5.444,4.527-4.482,7.964l0,0C155.674,439.616,159.24,441.623,162.677,440.661z"/>
	<path class="st6" d="M214.144,439.683l59.237-16.572c3.437-0.961,5.444-4.527,4.482-7.964l0,0
		c-0.961-3.437-4.527-5.444-7.964-4.482l-59.237,16.572c-3.437,0.961-5.444,4.527-4.482,7.964l0,0
		C207.142,438.638,210.707,440.644,214.144,439.683z"/>
	<path class="st7" d="M198.509,457.477l84.081-23.522c3.437-0.961,5.444-4.527,4.482-7.964v0c-0.961-3.437-4.527-5.444-7.964-4.482
		l-84.081,23.522c-3.437,0.961-5.444,4.527-4.482,7.964l0,0C191.506,456.432,195.072,458.439,198.509,457.477z"/>
	<path class="st6" d="M221.108,464.575l82.514-23.084c3.437-0.961,5.444-4.527,4.482-7.964v0c-0.961-3.437-4.527-5.444-7.964-4.482
		l-82.514,23.084c-3.437,0.961-5.444,4.527-4.482,7.964l0,0C214.105,463.53,217.671,465.536,221.108,464.575z"/>
	<path class="st7" d="M267.96,464.503l20.697-5.79c3.332-0.932,5.277-4.389,4.345-7.721l0,0c-0.932-3.332-4.389-5.277-7.721-4.345
		l-20.697,5.79c-3.332,0.932-5.277,4.389-4.345,7.721v0C261.171,463.489,264.628,465.435,267.96,464.503z"/>
	<path class="st6" d="M227.931,488.966l67.802-18.968c3.437-0.961,5.444-4.527,4.482-7.964l0,0
		c-0.961-3.437-4.527-5.444-7.964-4.482l-67.802,18.968c-3.437,0.961-5.444,4.527-4.482,7.964h0
		C220.929,487.921,224.494,489.927,227.931,488.966z"/>
	<path class="st7" d="M257.269,493.818l30.687-8.585c3.332-0.932,5.277-4.389,4.345-7.721l0,0c-0.932-3.332-4.389-5.277-7.721-4.345
		l-30.687,8.585c-3.332,0.932-5.277,4.389-4.345,7.721l0,0C250.481,492.805,253.938,494.75,257.269,493.818z"/>
	
		<ellipse transform="matrix(0.8865 -0.4626 0.4626 0.8865 -115.8556 373.6013)" class="st8" cx="703.805" cy="423.018" rx="42.188" ry="42.188"/>
	<path class="st9" d="M686.442,389.251l35.026,67.12c18.46-9.703,25.6-32.52,15.946-51.021
		C727.759,386.85,704.958,379.658,686.442,389.251z"/>
	<path class="st9" d="M676.32,399.044l12.423-6.483c0.979-0.511,1.358-1.719,0.848-2.698v0c-0.511-0.979-1.719-1.358-2.698-0.848
		l-12.423,6.483c-0.979,0.511-1.358,1.719-0.848,2.698l0,0C674.133,399.175,675.341,399.555,676.32,399.044z"/>
	<path class="st8" d="M674.515,404.496l19.111-9.973c0.979-0.511,1.358-1.719,0.848-2.698v0c-0.511-0.979-1.719-1.358-2.698-0.848
		l-19.111,9.973c-0.979,0.511-1.358,1.719-0.848,2.698l0,0C672.328,404.628,673.536,405.007,674.515,404.496z"/>
	<path class="st9" d="M683.178,404.486l10.276-5.363c0.979-0.511,1.358-1.719,0.848-2.698l0,0c-0.511-0.979-1.719-1.358-2.698-0.848
		l-10.276,5.363c-0.979,0.511-1.358,1.719-0.848,2.698l0,0C680.991,404.618,682.199,404.997,683.178,404.486z"/>
	<path class="st8" d="M678.215,411.587l31.62-16.501c0.979-0.511,1.358-1.719,0.848-2.698l0,0c-0.511-0.979-1.719-1.358-2.698-0.848
		l-31.62,16.501c-0.979,0.511-1.358,1.719-0.848,2.698l0,0C676.028,411.718,677.236,412.098,678.215,411.587z"/>
	<path class="st9" d="M668.425,421.206l31.56-16.469c0.979-0.511,1.358-1.719,0.848-2.698l0,0c-0.511-0.979-1.719-1.358-2.698-0.848
		l-31.56,16.469c-0.979,0.511-1.358,1.719-0.848,2.698l0,0C666.238,421.338,667.446,421.717,668.425,421.206z"/>
	<path class="st8" d="M681.915,418.677l15.758-8.223c0.979-0.511,1.358-1.719,0.848-2.698l0,0c-0.511-0.979-1.719-1.358-2.698-0.848
		l-15.758,8.223c-0.979,0.511-1.358,1.719-0.848,2.698l0,0C679.728,418.809,680.936,419.188,681.915,418.677z"/>
	<path class="st9" d="M684.368,421.907l19.316-10.08c0.979-0.511,1.358-1.719,0.848-2.698l0,0c-0.511-0.979-1.719-1.358-2.698-0.848
		l-19.316,10.08c-0.979,0.511-1.358,1.719-0.848,2.698v0C682.181,422.039,683.389,422.418,684.368,421.907z"/>
	<path class="st8" d="M685.615,425.767l22.106-11.536c0.979-0.511,1.358-1.719,0.848-2.698l0,0
		c-0.511-0.979-1.719-1.358-2.698-0.848l-22.106,11.536c-0.979,0.511-1.358,1.719-0.848,2.698l0,0
		C683.428,425.899,684.636,426.278,685.615,425.767z"/>
	<path class="st9" d="M679.563,433.436l28.832-15.046c0.979-0.511,1.358-1.719,0.848-2.698l0,0
		c-0.511-0.979-1.719-1.358-2.698-0.848l-28.832,15.046c-0.979,0.511-1.358,1.719-0.848,2.698l0,0
		C677.376,433.568,678.584,433.947,679.563,433.436z"/>
	<path class="st8" d="M689.315,432.858l29.103-15.187c0.979-0.511,1.358-1.719,0.848-2.698v0c-0.511-0.979-1.719-1.358-2.698-0.848
		l-29.103,15.187c-0.979,0.511-1.358,1.719-0.848,2.698l0,0C687.128,432.989,688.336,433.369,689.315,432.858z"/>
	<path class="st9" d="M672.894,445.938l37.584-19.613c0.979-0.511,1.358-1.719,0.848-2.698l0,0
		c-0.511-0.979-1.719-1.358-2.698-0.848l-37.584,19.613c-0.979,0.511-1.358,1.719-0.848,2.698l0,0
		C670.707,446.069,671.915,446.448,672.894,445.938z"/>
	<path class="st8" d="M693.015,439.948l18.528-9.669c0.979-0.511,1.358-1.719,0.848-2.698l0,0c-0.511-0.979-1.719-1.358-2.698-0.848
		l-18.528,9.669c-0.979,0.511-1.358,1.719-0.848,2.698l0,0C690.828,440.079,692.036,440.459,693.015,439.948z"/>
	<path class="st9" d="M702.826,439.339l10.543-5.502c0.979-0.511,1.358-1.719,0.848-2.698l0,0c-0.511-0.979-1.719-1.358-2.698-0.848
		l-10.543,5.502c-0.979,0.511-1.358,1.719-0.848,2.698v0C700.639,439.47,701.847,439.85,702.826,439.339z"/>
	<path class="st8" d="M696.715,447.038l28.991-15.129c0.979-0.511,1.358-1.719,0.848-2.698l0,0
		c-0.511-0.979-1.719-1.358-2.698-0.848l-28.991,15.129c-0.979,0.511-1.358,1.719-0.848,2.698v0
		C694.528,447.17,695.736,447.549,696.715,447.038z"/>
	<path class="st9" d="M701.419,449.094l15.651-8.167c0.979-0.511,1.358-1.719,0.848-2.698h0c-0.511-0.979-1.719-1.358-2.698-0.848
		l-15.651,8.167c-0.979,0.511-1.358,1.719-0.848,2.698l0,0C699.232,449.226,700.44,449.605,701.419,449.094z"/>
	<path class="st8" d="M700.415,454.129l25.985-13.56c0.979-0.511,1.358-1.719,0.848-2.698l0,0c-0.511-0.979-1.719-1.358-2.698-0.848
		l-25.985,13.56c-0.979,0.511-1.358,1.719-0.848,2.698l0,0C698.228,454.26,699.436,454.64,700.415,454.129z"/>
	<path class="st9" d="M697.762,459.894l22.728-11.86c0.949-0.495,1.317-1.666,0.822-2.615l0,0c-0.495-0.949-1.666-1.317-2.615-0.822
		l-22.728,11.86c-0.949,0.495-1.317,1.666-0.822,2.615l0,0C695.642,460.022,696.813,460.39,697.762,459.894z"/>
	<path class="st8" d="M704.04,461.076l19.313-10.078c0.979-0.511,1.358-1.719,0.848-2.698l0,0c-0.511-0.979-1.719-1.358-2.698-0.848
		l-19.313,10.078c-0.979,0.511-1.358,1.719-0.848,2.698l0,0C701.854,461.208,703.061,461.587,704.04,461.076z"/>
	<path class="st9" d="M713.232,460.669l8.741-4.561c0.949-0.495,1.317-1.666,0.822-2.615l0,0c-0.495-0.949-1.666-1.317-2.615-0.822
		l-8.741,4.561c-0.949,0.495-1.317,1.666-0.822,2.615l0,0C711.112,460.796,712.283,461.164,713.232,460.669z"/>
	<g>
		<circle class="st10" cx="1328" cy="393.213" r="5"/>
	</g>
	<g>
		<circle class="st11" cx="872" cy="72.213" r="2"/>
	</g>
	<g>
		<circle class="st10" cx="1836" cy="152.213" r="11"/>
	</g>
	<g>
		<circle class="st10" cx="385.5" cy="218.713" r="2.5"/>
	</g>
	<g>
		<circle class="st11" cx="11" cy="55.213" r="2"/>
	</g>
	<g>
		<circle class="st11" cx="1443.5" cy="477.713" r="8.5"/>
	</g>
	<g>
		<circle class="st11" cx="906" cy="336.213" r="1"/>
	</g>
	<g>
		<circle class="st11" cx="1572.5" cy="113.713" r="2.5"/>
	</g>
	<g>
		<circle class="st12" cx="1221.75" cy="55.463" r="1"/>
	</g>
	<g>
		<circle class="st12" cx="1167.75" cy="429.463" r="2"/>
	</g>
	<g>
		<circle class="st13" cx="2059.75" cy="470.463" r="8.25"/>
	</g>
	<g>
		<circle class="st13" cx="2273.75" cy="107.463" r="1.5"/>
	</g>
	<g>
		
			<ellipse transform="matrix(0.9979 -0.0644 0.0644 0.9979 -21.4256 115.6216)" class="st13" cx="1782.343" cy="390.078" rx="1.211" ry="1.211"/>
	</g>
	<g>
		<circle class="st13" cx="617" cy="306.213" r="4"/>
	</g>
	<g>
		<circle class="st13" cx="33.125" cy="300.088" r="5.875"/>
	</g>
	<g>
		<circle class="st13" cx="514.25" cy="85.721" r="7"/>
	</g>
	<g>
		<circle class="st10" cx="1150" cy="208.213" r="2"/>
	</g>
	<g>
		<circle class="st10" cx="406.745" cy="477.713" r="15"/>
	</g>
	<g>
		<circle class="st13" cx="1291.125" cy="242.088" r="1"/>
	</g>
	<g>
		<circle class="st11" cx="2319" cy="320.213" r="3"/>
	</g>
	
		<ellipse transform="matrix(0.2924 -0.9563 0.9563 0.2924 433.9765 768.9131)" class="st14" cx="736.587" cy="91.194" rx="114.726" ry="114.726"/>
	<path class="st15" d="M767.375-7.365l-60.209,196.887c54.282,16.424,111.656-14.161,128.251-68.43
		C852.013,66.824,821.559,9.38,767.375-7.365z"/>
	<path class="st15" d="M733.517-6.347l32.297,9.877c2.708,0.828,5.576-0.696,6.404-3.404l0.181-0.591
		c0.828-2.708-0.696-5.576-3.404-6.404l-32.297-9.877c-2.708-0.828-5.576,0.696-6.404,3.404l-0.181,0.591
		C729.285-10.043,730.809-7.175,733.517-6.347z"/>
	<path class="st14" d="M715.175-0.585l56.059,17.143c2.872,0.878,5.911-0.738,6.79-3.61v0c0.878-2.872-0.738-5.911-3.609-6.79
		l-56.059-17.143c-2.872-0.878-5.911,0.738-6.79,3.61v0C710.688-4.503,712.304-1.463,715.175-0.585z"/>
	<path class="st15" d="M703.138,7.106l58.986,18.038c2.872,0.878,5.911-0.738,6.79-3.61v0c0.878-2.872-0.738-5.911-3.609-6.79
		L706.318-3.293c-2.872-0.878-5.911,0.738-6.79,3.61v0C698.651,3.188,700.267,6.228,703.138,7.106z"/>
	<path class="st14" d="M708.815,20.214l61.396,18.775c2.872,0.878,5.911-0.738,6.79-3.61v0c0.878-2.872-0.738-5.911-3.609-6.79
		L711.995,9.815c-2.872-0.878-5.911,0.738-6.79,3.61v0C704.327,16.296,705.943,19.336,708.815,20.214z"/>
	<path class="st15" d="M689.662,25.728l74.405,22.753c2.872,0.878,5.911-0.738,6.79-3.61v0c0.878-2.872-0.738-5.911-3.609-6.79
		l-74.405-22.753c-2.872-0.878-5.911,0.738-6.79,3.61v0C685.174,21.81,686.79,24.85,689.662,25.728z"/>
	<path class="st14" d="M702.455,41.012l51.315,15.692c2.872,0.878,5.911-0.738,6.79-3.61v0c0.878-2.872-0.738-5.911-3.609-6.79
		l-51.315-15.692c-2.872-0.878-5.911,0.738-6.79,3.61v0C697.967,37.094,699.583,40.134,702.455,41.012z"/>
	<path class="st15" d="M703.465,52.693l54.241,16.587c2.872,0.878,5.911-0.738,6.79-3.61v0c0.878-2.872-0.738-5.911-3.61-6.79
		l-54.241-16.587c-2.872-0.878-5.911,0.738-6.79,3.61v0C698.977,48.775,700.593,51.814,703.465,52.693z"/>
	<path class="st14" d="M696.095,61.811l66.734,20.407c2.872,0.878,5.911-0.738,6.79-3.61v0c0.878-2.872-0.738-5.911-3.609-6.79
		l-66.734-20.407c-2.872-0.878-5.911,0.738-6.79,3.61v0C691.607,57.893,693.223,60.932,696.095,61.811z"/>
	<path class="st15" d="M666.267,64.061l88.044,26.924c2.872,0.878,5.911-0.738,6.79-3.61l0,0c0.878-2.872-0.738-5.911-3.61-6.79
		l-88.044-26.924c-2.872-0.878-5.911,0.738-6.79,3.61v0C661.779,60.143,663.395,63.183,666.267,64.061z"/>
	<path class="st14" d="M689.735,82.609l45.977,14.06c2.872,0.878,5.911-0.738,6.79-3.61v0c0.878-2.872-0.738-5.911-3.609-6.79
		l-45.977-14.06c-2.872-0.878-5.911,0.738-6.79,3.61v0C685.247,78.691,686.863,81.731,689.735,82.609z"/>
	<path class="st15" d="M671.767,88.486l71.439,21.846c2.872,0.878,5.911-0.738,6.79-3.61v0c0.878-2.872-0.738-5.911-3.61-6.79
		l-71.439-21.846c-2.872-0.878-5.911,0.738-6.79,3.61v0C667.279,84.568,668.895,87.608,671.767,88.486z"/>
	<path class="st14" d="M683.374,103.407l102.583,31.37c2.872,0.878,5.911-0.738,6.79-3.61l0,0c0.878-2.872-0.738-5.911-3.61-6.79
		l-102.583-31.37c-2.872-0.878-5.911,0.738-6.79,3.61v0C678.887,99.489,680.503,102.529,683.374,103.407z"/>
	<path class="st15" d="M644.651,102.937l89.823,27.468c2.872,0.878,5.911-0.738,6.79-3.61v0c0.878-2.872-0.738-5.911-3.61-6.79
		l-89.823-27.468c-2.872-0.878-5.911,0.738-6.79,3.61v0C640.163,99.019,641.779,102.059,644.651,102.937z"/>
	<path class="st14" d="M677.014,124.206l71.478,21.858c2.872,0.878,5.911-0.738,6.79-3.61l0,0c0.878-2.872-0.738-5.911-3.61-6.79
		l-71.478-21.858c-2.872-0.878-5.911,0.738-6.79,3.61l0,0C672.526,120.288,674.143,123.328,677.014,124.206z"/>
	<path class="st15" d="M657.861,129.72l70.253,21.484c2.872,0.878,5.911-0.738,6.79-3.61v0c0.878-2.872-0.738-5.911-3.61-6.79
		l-70.253-21.484c-2.872-0.878-5.911,0.738-6.79,3.61v0C653.373,125.802,654.989,128.842,657.861,129.72z"/>
	<path class="st14" d="M670.654,145.004l91.058,27.846c2.872,0.878,5.911-0.738,6.79-3.61v0c0.878-2.872-0.738-5.911-3.61-6.79
		l-91.058-27.846c-2.872-0.878-5.911,0.738-6.79,3.61v0C666.166,141.086,667.782,144.126,670.654,145.004z"/>
	<path class="st15" d="M663.854,153.97l57.326,17.53c2.784,0.851,5.731-0.715,6.582-3.499v0c0.851-2.784-0.715-5.731-3.499-6.582
		l-57.326-17.53c-2.784-0.851-5.731,0.715-6.582,3.499h0C659.503,150.172,661.07,153.119,663.854,153.97z"/>
	<path class="st14" d="M664.422,165.384l56.652,17.324c2.872,0.878,5.911-0.738,6.79-3.61v0c0.878-2.872-0.738-5.911-3.61-6.79
		l-56.652-17.324c-2.872-0.878-5.911,0.738-6.79,3.61v0C659.934,161.466,661.55,164.506,664.422,165.384z"/>
	
		<ellipse transform="matrix(0.3823 -0.924 0.924 0.3823 986.9588 2110.9463)" class="st16" cx="2072.395" cy="317.262" rx="124.967" ry="124.967"/>
	
		<ellipse transform="matrix(0.3823 -0.924 0.924 0.3823 987.1512 2111.2341)" class="st16" cx="2072.707" cy="317.262" rx="109.971" ry="109.971"/>
	<path class="st15" d="M699.707,187.241l8.942,2.735c2.784,0.851,5.731-0.715,6.582-3.499v0c0.851-2.784-0.715-5.731-3.499-6.582
		l-8.942-2.735c-2.784-0.851-5.731,0.715-6.582,3.499v0C695.356,183.442,696.923,186.389,699.707,187.241z"/>
	
		<ellipse transform="matrix(0.3823 -0.924 0.924 0.3823 987.1965 2111.2039)" class="st17" cx="2072.707" cy="317.213" rx="95.137" ry="95.137"/>
	<path class="st18" d="M2104.965,237.897l-65.271,157.763c-43.403-18.107-63.999-67.934-46.009-111.419
		C2011.677,240.757,2061.456,220.046,2104.965,237.897z"/>
	<path class="st18" d="M2110.952,250.133l-10.495-4.342c-2.301-0.952-3.395-3.589-2.443-5.89v0c0.952-2.301,3.589-3.395,5.89-2.443
		l10.495,4.342c2.301,0.952,3.395,3.589,2.443,5.89l0,0C2115.89,249.991,2113.253,251.085,2110.952,250.133z"/>
	<path class="st17" d="M2134.801,269.759l-44.919-18.584c-2.301-0.952-3.395-3.589-2.443-5.89v0c0.952-2.301,3.589-3.395,5.89-2.443
		l44.919,18.584c2.301,0.952,3.395,3.589,2.443,5.89l0,0C2139.739,269.617,2137.102,270.711,2134.801,269.759z"/>
	<path class="st18" d="M2125.871,275.823l-34.685-14.35c-2.301-0.952-3.395-3.589-2.443-5.89v0c0.952-2.301,3.589-3.395,5.89-2.443
		l34.685,14.35c2.301,0.952,3.395,3.589,2.443,5.89v0C2130.81,275.682,2128.172,276.775,2125.871,275.823z"/>
	<path class="st17" d="M2127.906,286.424l-45.101-18.66c-2.301-0.952-3.395-3.589-2.443-5.89l0,0
		c0.952-2.301,3.589-3.395,5.89-2.443l45.102,18.66c2.301,0.952,3.395,3.589,2.443,5.89v0
		C2132.844,286.283,2130.207,287.376,2127.906,286.424z"/>
	<path class="st18" d="M2151.818,306.076l-74.179-30.69c-2.301-0.952-3.395-3.589-2.443-5.89l0,0
		c0.952-2.301,3.589-3.395,5.89-2.443l74.179,30.69c2.301,0.952,3.395,3.589,2.443,5.89l0,0
		C2156.756,305.935,2154.119,307.028,2151.818,306.076z"/>
	<path class="st17" d="M2121.011,303.09l-38.246-15.823c-2.301-0.952-3.395-3.589-2.443-5.89l0,0
		c0.952-2.301,3.589-3.395,5.89-2.443l38.246,15.823c2.301,0.952,3.395,3.589,2.443,5.89l0,0
		C2125.949,302.948,2123.312,304.042,2121.011,303.09z"/>
	<path class="st18" d="M2116.145,310.836l-45.402-18.784c-2.301-0.952-3.395-3.589-2.443-5.89v0c0.952-2.301,3.589-3.395,5.89-2.443
		l45.402,18.784c2.301,0.952,3.395,3.589,2.443,5.89v0C2121.083,310.694,2118.446,311.788,2116.145,310.836z"/>
	<path class="st17" d="M2114.116,319.755l-58.55-24.224c-2.301-0.952-3.395-3.589-2.443-5.89v0c0.952-2.301,3.589-3.395,5.89-2.443
		l58.55,24.224c2.301,0.952,3.395,3.589,2.443,5.89l0,0C2119.054,319.614,2116.417,320.707,2114.116,319.755z"/>
	<path class="st18" d="M2118.985,331.529l-57.512-23.794c-2.301-0.952-3.395-3.589-2.443-5.89l0,0
		c0.952-2.301,3.589-3.395,5.89-2.443l57.512,23.794c2.301,0.952,3.395,3.589,2.443,5.89l0,0
		C2123.923,331.387,2121.286,332.48,2118.985,331.529z"/>
	<path class="st17" d="M2107.221,336.421l-48.37-20.012c-2.301-0.952-3.395-3.589-2.443-5.89l0,0
		c0.952-2.301,3.589-3.395,5.89-2.443l48.37,20.012c2.301,0.952,3.395,3.589,2.443,5.89l0,0
		C2112.159,336.279,2109.522,337.373,2107.221,336.421z"/>
	<path class="st18" d="M2099.933,343.165l-41.554-17.192c-2.301-0.952-3.395-3.589-2.443-5.89l0,0
		c0.952-2.301,3.589-3.395,5.89-2.443l41.554,17.192c2.301,0.952,3.395,3.589,2.443,5.89l0,0
		C2104.872,343.023,2102.234,344.117,2099.933,343.165z"/>
	<path class="st17" d="M2100.326,353.086l-59.31-24.538c-2.301-0.952-3.395-3.589-2.443-5.89l0,0
		c0.952-2.301,3.589-3.395,5.89-2.443l59.31,24.538c2.301,0.952,3.395,3.589,2.443,5.89l0,0
		C2105.264,352.945,2102.627,354.038,2100.326,353.086z"/>
	<path class="st18" d="M2078.167,353.677l-24.781-10.253c-2.301-0.952-3.395-3.589-2.443-5.89l0,0
		c0.952-2.301,3.589-3.395,5.89-2.443l24.781,10.253c2.301,0.952,3.395,3.589,2.443,5.89l0,0
		C2083.104,353.536,2080.468,354.629,2078.167,353.677z"/>
	<path class="st17" d="M2093.431,369.752l-68.142-28.192c-2.301-0.952-3.395-3.589-2.443-5.89l0,0
		c0.952-2.301,3.589-3.395,5.89-2.443l68.142,28.192c2.301,0.952,3.395,3.589,2.443,5.89v0
		C2098.369,369.61,2095.732,370.704,2093.431,369.752z"/>
	<path class="st18" d="M2083.276,375.309l-36.786-15.219c-2.301-0.952-3.395-3.589-2.443-5.89l0,0
		c0.952-2.301,3.589-3.395,5.89-2.443l36.786,15.219c2.301,0.952,3.395,3.589,2.443,5.89l0,0
		C2088.214,375.168,2085.577,376.261,2083.276,375.309z"/>
	<path class="st17" d="M2086.536,386.417l-61.076-25.269c-2.301-0.952-3.395-3.589-2.443-5.89l0,0
		c0.952-2.301,3.589-3.395,5.89-2.443l61.076,25.269c2.301,0.952,3.395,3.589,2.443,5.89l0,0
		C2091.475,386.276,2088.837,387.369,2086.536,386.417z"/>
	<path class="st18" d="M2079.248,392.881l-39.021-16.144c-2.231-0.923-3.291-3.479-2.368-5.71l0,0
		c0.923-2.231,3.479-3.291,5.71-2.368l39.021,16.144c2.231,0.923,3.291,3.479,2.368,5.71l0,0
		C2084.035,392.744,2081.479,393.804,2079.248,392.881z"/>
	<path class="st17" d="M2079.78,402.747l-45.395-18.781c-2.301-0.952-3.395-3.589-2.443-5.89l0,0
		c0.952-2.301,3.589-3.395,5.89-2.443l45.395,18.781c2.301,0.952,3.395,3.589,2.443,5.89l0,0
		C2084.718,402.606,2082.081,403.699,2079.78,402.747z"/>
	<path class="st18" d="M2059.052,403.669l-20.545-8.5c-2.231-0.923-3.291-3.479-2.368-5.71v0c0.923-2.231,3.479-3.291,5.71-2.368
		l20.545,8.5c2.231,0.923,3.291,3.479,2.368,5.71l0,0C2063.839,403.531,2061.282,404.592,2059.052,403.669z"/>
	
		<ellipse transform="matrix(0.8132 -0.582 0.582 0.8132 329.4355 1175.0476)" class="st19" cx="1995.296" cy="74.304" rx="59.7" ry="59.7"/>
	<path class="st20" d="M1963.766,30.797l62.349,87.127c-24.05,17.103-57.421,11.532-74.607-12.483
		C1934.322,81.426,1939.817,48.042,1963.766,30.797z"/>
	<path class="st20" d="M1972.269,31.671l-5.796,4.148c-1.271,0.909-3.038,0.616-3.948-0.654v0c-0.909-1.271-0.616-3.038,0.654-3.948
		l5.796-4.148c1.271-0.909,3.038-0.616,3.948,0.654v0C1973.832,28.994,1973.539,30.762,1972.269,31.671z"/>
	<path class="st19" d="M1990.637,25.485l-28.825,20.628c-1.271,0.909-3.038,0.616-3.948-0.654v0
		c-0.909-1.271-0.616-3.038,0.654-3.948l28.825-20.628c1.271-0.909,3.038-0.616,3.948,0.654v0
		C1992.201,22.808,1991.908,24.575,1990.637,25.485z"/>
	<path class="st20" d="M1990.902,32.253l-19.155,13.708c-1.271,0.909-3.038,0.616-3.948-0.654v0
		c-0.909-1.271-0.616-3.038,0.654-3.948l19.155-13.708c1.271-0.909,3.038-0.616,3.948,0.654v0
		C1992.466,29.577,1992.173,31.344,1990.902,32.253z"/>
	<path class="st19" d="M1997.223,34.689l-24.908,17.824c-1.271,0.909-3.038,0.616-3.948-0.654v0
		c-0.909-1.271-0.616-3.038,0.654-3.948l24.908-17.824c1.271-0.909,3.038-0.616,3.948,0.654v0
		C1998.787,32.012,1998.494,33.779,1997.223,34.689z"/>
	<path class="st20" d="M2015.626,28.478l-40.966,29.316c-1.271,0.909-3.038,0.616-3.948-0.654v0
		c-0.909-1.271-0.616-3.038,0.654-3.948l40.966-29.316c1.271-0.909,3.038-0.616,3.948,0.654v0
		C2017.189,25.801,2016.896,27.569,2015.626,28.478z"/>
	<path class="st19" d="M2003.809,43.892l-21.122,15.115c-1.271,0.909-3.038,0.616-3.948-0.654v0
		c-0.909-1.271-0.616-3.038,0.654-3.948l21.122-15.115c1.271-0.909,3.038-0.616,3.948,0.654v0
		C2005.373,41.216,2005.08,42.983,2003.809,43.892z"/>
	<path class="st20" d="M2006.319,49.055l-25.074,17.943c-1.271,0.909-3.038,0.616-3.948-0.654v0
		c-0.909-1.271-0.616-3.038,0.654-3.948l25.074-17.943c1.271-0.909,3.038-0.616,3.948,0.654v0
		C2007.883,46.378,2007.59,48.145,2006.319,49.055z"/>
	<path class="st19" d="M2010.396,53.096l-36.594,26.187c-1.271,0.909-3.038,0.616-3.948-0.654l0,0
		c-0.909-1.271-0.616-3.038,0.654-3.948l36.594-26.187c1.271-0.909,3.038-0.616,3.948,0.654v0
		C2011.959,50.419,2011.667,52.187,2010.396,53.096z"/>
	<path class="st20" d="M2018.281,54.411l-31.762,22.729c-1.271,0.909-3.038,0.616-3.948-0.654v0
		c-0.909-1.271-0.616-3.038,0.654-3.948l31.762-22.729c1.271-0.909,3.038-0.616,3.948,0.654v0
		C2019.845,51.735,2019.552,53.502,2018.281,54.411z"/>
	<path class="st19" d="M2016.982,62.3l-28.049,20.073c-1.271,0.909-3.038,0.616-3.948-0.654l0,0
		c-0.909-1.271-0.616-3.038,0.654-3.948l28.049-20.073c1.271-0.909,3.038-0.616,3.948,0.654v0
		C2018.546,59.623,2018.253,61.39,2016.982,62.3z"/>
	<path class="st20" d="M2028.538,60.989l-33.333,23.853c-1.271,0.909-3.038,0.616-3.948-0.654l0,0
		c-0.909-1.271-0.616-3.038,0.654-3.948l33.333-23.853c1.271-0.909,3.038-0.616,3.948,0.654v0
		C2030.102,58.312,2029.809,60.079,2028.538,60.989z"/>
	<path class="st19" d="M2023.568,71.503l-32.755,23.44c-1.271,0.909-3.038,0.616-3.948-0.654v0
		c-0.909-1.271-0.616-3.038,0.654-3.948l32.755-23.44c1.271-0.909,3.038-0.616,3.948,0.654v0
		C2025.132,68.827,2024.839,70.594,2023.568,71.503z"/>
	<path class="st20" d="M2020.696,80.517l-17.855,12.777c-1.271,0.909-3.038,0.616-3.948-0.654l0,0
		c-0.909-1.271-0.616-3.038,0.654-3.948l17.855-12.777c1.271-0.909,3.038-0.616,3.948,0.654l0,0
		C2022.26,77.841,2021.967,79.608,2020.696,80.517z"/>
	<path class="st19" d="M2030.155,80.707l-45.845,32.807c-1.271,0.909-3.038,0.616-3.948-0.654v0
		c-0.909-1.271-0.616-3.038,0.654-3.948l45.845-32.807c1.271-0.909,3.038-0.616,3.948,0.654v0
		C2031.718,78.03,2031.425,79.798,2030.155,80.707z"/>
	<path class="st20" d="M2031.678,86.575l-22.25,15.923c-1.271,0.909-3.038,0.616-3.948-0.654v0
		c-0.909-1.271-0.616-3.038,0.654-3.948l22.25-15.923c1.271-0.909,3.038-0.616,3.948,0.654l0,0
		C2033.242,83.899,2032.949,85.666,2031.678,86.575z"/>
	<path class="st19" d="M2036.741,89.911l-33.73,24.138c-1.271,0.909-3.038,0.616-3.948-0.654v0
		c-0.909-1.271-0.616-3.038,0.654-3.948l33.73-24.138c1.271-0.909,3.038-0.616,3.948,0.654l0,0
		C2038.305,87.234,2038.012,89.002,2036.741,89.911z"/>
	<path class="st20" d="M2044.614,91.036l-28.4,20.323c-1.232,0.882-2.945,0.598-3.827-0.634l0,0
		c-0.882-1.232-0.598-2.945,0.634-3.827l28.4-20.323c1.232-0.882,2.945-0.598,3.827,0.634v0
		C2046.13,88.441,2045.846,90.154,2044.614,91.036z"/>
	<path class="st19" d="M2043.195,98.929l-25.07,17.94c-1.271,0.909-3.038,0.616-3.948-0.654v0c-0.909-1.271-0.616-3.038,0.654-3.948
		l25.07-17.94c1.271-0.909,3.038-0.616,3.948,0.654v0C2044.759,96.253,2044.466,98.02,2043.195,98.929z"/>
	<path class="st20" d="M2036.805,110.274l-11.346,8.12c-1.232,0.882-2.945,0.598-3.827-0.634l0,0
		c-0.882-1.232-0.598-2.945,0.634-3.827l11.346-8.12c1.232-0.882,2.945-0.598,3.827,0.634v0
		C2038.321,107.679,2038.037,109.392,2036.805,110.274z"/>
	<g class="st21">
		<circle class="st10" cx="406.745" cy="477.713" r="22.5"/>
	</g>
	<g class="st21">
		<circle class="st10" cx="406.745" cy="477.713" r="30"/>
	</g>
	<circle class="st22" cx="1246.368" cy="163.213" r="25"/>
	<circle class="st23" cx="1246.368" cy="163.213" r="17.5"/>
	<circle class="st24" cx="1246.368" cy="163.213" r="10"/>
	<circle class="st25" cx="166.722" cy="50.213" r="22"/>
	<circle class="st26" cx="166.722" cy="50.213" r="14.5"/>
	<circle class="st27" cx="166.722" cy="50.213" r="7"/>
</g>
</svg>
