<?xml version="1.0" encoding="utf-8"?>
<!-- Generator: Adobe Illustrator 21.1.0, SVG Export Plug-In . SVG Version: 6.00 Build 0)  -->
<svg version="1.1" id="Слой_2" xmlns="http://www.w3.org/2000/svg" xmlns:xlink="http://www.w3.org/1999/xlink" x="0px" y="0px"
	 viewBox="0 0 1000 1000" style="enable-background:new 0 0 1000 1000;" xml:space="preserve">
<style type="text/css">
	.st0{fill:#333333;}
</style>
<g>
	<path class="st0" d="M562,476v428.283C562,941.128,534.24,971,500,971s-62-29.872-62-66.717V476H562z"/>
	<path class="st0" d="M468.713,421.541l371.018-214.207c31.919-18.428,71.677-9.328,88.797,20.325s5.122,68.634-26.797,87.063
		L530.713,528.928L468.713,421.541z"/>
	<path class="st0" d="M531.586,422.291L159.444,207.435c-32.015-18.484-71.852-9.429-88.972,20.223s-5.044,68.68,26.972,87.164
		l372.142,214.856L531.586,422.291z"/>
	<circle class="st0" cx="878" cy="719" r="59"/>
	<circle class="st0" cx="122" cy="719" r="59"/>
	<circle class="st0" cx="497" cy="88" r="59"/>
</g>
</svg>
