<?xml version="1.0" encoding="utf-8"?>
<!-- Generator: Adobe Illustrator 21.1.0, SVG Export Plug-In . SVG Version: 6.00 Build 0)  -->
<svg version="1.1" id="Layer_1" xmlns="http://www.w3.org/2000/svg" xmlns:xlink="http://www.w3.org/1999/xlink" x="0px" y="0px"
	 viewBox="0 0 500 500" style="enable-background:new 0 0 500 500;" xml:space="preserve">
<style type="text/css">
	.st0{fill:#E1EFF0;}
</style>
<g>
	<path class="st0" d="M250.001,6.173C111.948,6.173,0,118.097,0,256.172c0,110.456,71.633,204.166,170.966,237.225
		c12.493,2.313,17.081-5.426,17.081-12.027c0-5.959-0.23-25.656-0.34-46.546c-69.55,15.125-84.225-29.497-84.225-29.497
		c-11.373-28.895-27.758-36.58-27.758-36.58c-22.684-15.517,1.71-15.197,1.71-15.197c25.102,1.763,38.322,25.766,38.322,25.766
		c22.297,38.217,58.484,27.167,72.752,20.78c2.244-16.156,8.72-27.188,15.872-33.431c-55.529-6.319-113.904-27.758-113.904-123.551
		c0-27.292,9.767-49.595,25.761-67.103c-2.596-6.299-11.154-31.724,2.422-66.162c0,0,20.994-6.716,68.764,25.63
		c19.944-5.54,41.331-8.318,62.577-8.414c21.245,0.097,42.648,2.875,62.627,8.414c47.718-32.345,68.681-25.63,68.681-25.63
		c13.607,34.438,5.049,59.863,2.453,66.162c16.031,17.508,25.729,39.81,25.729,67.103c0,96.023-58.484,117.163-114.154,123.353
		c8.967,7.759,16.955,22.972,16.955,46.296c0,33.45-0.286,60.372-0.286,68.607c0,6.655,4.499,14.45,17.169,11.995
		C428.458,460.27,500,366.592,500,256.172C500,118.097,388.069,6.173,250.001,6.173z"/>
	<path class="st0" d="M234.692,268.408c-0.054,0.123-0.247,0.159-0.422,0.075c-0.179-0.08-0.279-0.247-0.221-0.37
		c0.053-0.126,0.246-0.161,0.424-0.077C234.652,268.117,234.754,268.286,234.692,268.408L234.692,268.408z"/>
	<path class="st0" d="M104.816,376.413c-1.192,1.103-3.525,0.59-5.106-1.156c-1.637-1.743-1.94-4.076-0.731-5.195
		c1.229-1.104,3.489-0.587,5.126,1.156C105.742,372.98,106.061,375.292,104.816,376.413L104.816,376.413z"/>
	<path class="st0" d="M114.674,390.809c-1.533,1.067-4.039,0.068-5.588-2.155c-1.533-2.224-1.533-4.892,0.036-5.96
		c1.549-1.067,4.019-0.105,5.588,2.099C116.237,387.053,116.237,389.721,114.674,390.809L114.674,390.809z"/>
	<path class="st0" d="M128.177,404.721c-1.372,1.512-4.291,1.103-6.424-0.959c-2.187-2.013-2.794-4.876-1.424-6.387
		c1.391-1.513,4.327-1.088,6.476,0.958C128.976,400.346,129.635,403.224,128.177,404.721L128.177,404.721z"/>
	<path class="st0" d="M146.806,412.798c-0.606,1.956-3.416,2.846-6.246,2.013c-2.83-0.857-4.677-3.15-4.107-5.127
		c0.586-1.973,3.411-2.898,6.262-2.008C145.541,408.529,147.392,410.805,146.806,412.798L146.806,412.798z"/>
	<path class="st0" d="M167.267,414.294c0.068,2.062-2.333,3.772-5.304,3.809c-2.989,0.068-5.41-1.601-5.442-3.63
		c0-2.083,2.348-3.773,5.337-3.825C164.829,410.59,167.267,412.248,167.267,414.294L167.267,414.294z"/>
	<path class="st0" d="M243.718,272.934c0.035,0.198-0.169,0.401-0.459,0.456c-0.286,0.053-0.55-0.07-0.587-0.266
		c-0.035-0.203,0.172-0.407,0.457-0.459C243.42,272.614,243.681,272.733,243.718,272.934L243.718,272.934z"/>
</g>
</svg>
