<?xml version="1.0" encoding="utf-8"?>
<!-- Generator: Adobe Illustrator 21.1.0, SVG Export Plug-In . SVG Version: 6.00 Build 0)  -->
<svg version="1.1" id="Слой_2" xmlns="http://www.w3.org/2000/svg" xmlns:xlink="http://www.w3.org/1999/xlink" x="0px" y="0px"
	 viewBox="0 0 507 507" style="enable-background:new 0 0 507 507;" xml:space="preserve">
<style type="text/css">
	.st0{fill:#FFFFFF;}
</style>
<g>
	<path class="st0" d="M309.086,375.846l-24.918,24.926c-16.638,16.644-43.62,16.644-60.258,0L13.791,190.585
		c-16.631-16.636-16.631-43.603,0-60.239l24.918-24.926c16.638-16.644,43.62-16.644,60.258,0l210.118,210.187
		C325.716,332.243,325.716,359.21,309.086,375.846z"/>
	<path class="st0" d="M198.45,375.846l24.918,24.926c16.638,16.644,43.62,16.644,60.258,0l210.118-210.187
		c16.631-16.636,16.631-43.603,0-60.239l-24.918-24.926c-16.638-16.644-43.62-16.644-60.258,0L198.45,315.607
		C181.819,332.243,181.819,359.21,198.45,375.846z"/>
</g>
</svg>
