<?xml version="1.0" encoding="utf-8"?>
<!-- Generator: Adobe Illustrator 21.1.0, SVG Export Plug-In . SVG Version: 6.00 Build 0)  -->
<svg version="1.1" id="Layer_1" xmlns="http://www.w3.org/2000/svg" xmlns:xlink="http://www.w3.org/1999/xlink" x="0px" y="0px"
	 viewBox="0 0 500 500" style="enable-background:new 0 0 500 500;" xml:space="preserve">
<style type="text/css">
	.st0{fill:#E1EFF0;}
</style>
<g id="XMLID_496_">
	<path id="XMLID_497_" class="st0" d="M8.647,241.067L123.945,284.1l44.628,143.522c2.856,9.192,14.096,12.59,21.557,6.49
		l64.269-52.394c6.737-5.489,16.333-5.763,23.373-0.652l115.919,84.16c7.981,5.801,19.288,1.428,21.29-8.216l84.917-408.465
		c2.185-10.535-8.166-19.323-18.197-15.444L8.512,215.643C-3.166,220.146-3.064,236.679,8.647,241.067z M161.381,261.193
		l225.336-138.785c4.05-2.487,8.216,2.989,4.739,6.215L205.488,301.489c-6.537,6.085-10.753,14.228-11.947,23.066l-6.335,46.946
		c-0.839,6.268-9.644,6.89-11.374,0.824l-24.364-85.607C148.677,276.953,152.744,266.523,161.381,261.193z"/>
</g>
</svg>
